<?xml version="1.0" encoding="UTF-8"?>
<svg xmlns="http://www.w3.org/2000/svg" xmlns:xlink="http://www.w3.org/1999/xlink" width="50pt" height="50pt" viewBox="0 0 50 50" version="1.1">
<g id="surface1">
<path style=" stroke:none;fill-rule:nonzero;fill:rgb(23.529412%,74.509804%,100%);fill-opacity:1;" d="M 42.6875 7.332031 C 32.929688 -2.4375 17.101562 -2.445312 7.332031 7.3125 C -2.4375 17.070312 -2.445312 32.898438 7.3125 42.667969 C 17.070312 52.4375 32.898438 52.445312 42.667969 42.6875 C 52.4375 32.929688 52.445312 17.101562 42.6875 7.332031 Z M 28.492188 40.863281 C 28.492188 41.25 28.179688 41.5625 27.792969 41.5625 L 22.207031 41.5625 C 21.820312 41.5625 21.507812 41.25 21.507812 40.863281 L 21.507812 20.132812 C 21.507812 19.746094 21.820312 19.433594 22.207031 19.433594 L 27.792969 19.433594 C 28.179688 19.433594 28.492188 19.746094 28.492188 20.132812 Z M 25 16.535156 C 22.765625 16.535156 20.953125 14.71875 20.953125 12.488281 C 20.953125 10.253906 22.765625 8.4375 25 8.4375 C 27.234375 8.4375 29.050781 10.253906 29.050781 12.488281 C 29.050781 14.71875 27.234375 16.535156 25 16.535156 Z M 25 16.535156 "/>
</g>
</svg>
